<?xml version="1.0" standalone="no"?>
<!DOCTYPE svg PUBLIC "-//W3C//DTD SVG 20010904//EN"
 "http://www.w3.org/TR/2001/REC-SVG-20010904/DTD/svg10.dtd">
<svg version="1.0" xmlns="http://www.w3.org/2000/svg"
 width="895.000000pt" height="1280.000000pt" viewBox="0 0 895.000000 1280.000000"
 preserveAspectRatio="xMidYMid meet">
<g transform="translate(0.000000,1280.000000) scale(0.100000,-0.100000)"
fill="#000000" stroke="none">
<path d="M680 12779 c-119 -26 -192 -55 -274 -109 -158 -105 -263 -243 -318
-420 l-23 -75 0 -2545 0 -2545 27 -78 c39 -117 100 -211 197 -307 71 -71 103
-94 181 -133 52 -25 124 -54 160 -64 61 -17 274 -18 3805 -21 2518 -2 3769 0
3830 7 263 30 481 183 600 421 15 30 41 107 56 170 l29 115 0 2435 c0 2608 2
2481 -47 2635 -71 223 -265 417 -488 488 -155 50 76 47 -3925 46 -3599 -1
-3728 -2 -3810 -20z m7515 -448 c3 -6 -825 -736 -1840 -1623 -1438 -1257
-1860 -1621 -1911 -1648 -62 -33 -73 -35 -158 -35 -137 0 -173 20 -360 203
-83 82 -734 717 -1446 1412 -1596 1557 -1712 1671 -1706 1687 4 11 706 13
3710 13 2296 0 3707 -4 3711 -9z m295 -2712 c0 -1920 -2 -2329 -13 -2329 -15
0 -2227 2674 -2234 2700 -4 13 282 268 1112 994 615 537 1121 973 1126 970 5
-3 9 -995 9 -2335z m-6958 1317 c546 -532 1001 -979 1012 -991 18 -23 18 -24
0 -49 -85 -114 -2012 -2435 -2021 -2436 -10 0 -13 452 -13 2226 0 1939 2 2225
14 2222 8 -2 462 -439 1008 -972z m5489 -2607 c618 -749 1124 -1369 1124
-1378 0 -15 -291 -16 -3664 -19 -2015 -1 -3684 1 -3710 6 -30 5 -47 13 -49 23
-3 16 2134 2615 2164 2632 10 6 135 -111 427 -397 227 -222 434 -422 460 -444
107 -88 243 -148 389 -172 189 -30 406 15 565 119 32 21 303 252 603 515 300
262 550 476 556 476 6 0 516 -613 1135 -1361z"/>
</g>
</svg>
