<?xml version="1.0" standalone="no"?>
<!DOCTYPE svg PUBLIC "-//W3C//DTD SVG 20010904//EN"
 "http://www.w3.org/TR/2001/REC-SVG-20010904/DTD/svg10.dtd">
<svg version="1.0" xmlns="http://www.w3.org/2000/svg"
 width="512.000000pt" height="512.000000pt" viewBox="0 0 512.000000 512.000000"
 preserveAspectRatio="xMidYMid meet">

<g transform="translate(0.000000,512.000000) scale(0.100000,-0.100000)"
fill="#485a96" stroke="none">
<path d="M215 5109 c-93 -22 -185 -117 -205 -214 -7 -34 -10 -776 -8 -2365 l3
-2315 23 -46 c29 -59 82 -112 141 -141 l46 -23 1258 -3 1257 -2 0 990 0 990
-330 0 -330 0 0 390 0 390 329 0 329 0 5 373 c4 335 7 382 26 472 91 414 362
667 781 730 140 22 511 16 738 -11 l52 -6 0 -349 0 -349 -252 0 c-275 0 -333
-8 -410 -53 -25 -14 -57 -44 -71 -66 -50 -76 -57 -128 -57 -448 l0 -293 380 0
380 0 0 -22 c0 -13 -21 -188 -47 -390 l-47 -368 -333 0 -333 0 0 -990 0 -991
683 3 682 3 46 23 c59 29 112 82 141 141 l23 46 0 2345 0 2345 -23 46 c-29 59
-82 112 -141 141 l-46 23 -2325 2 c-1407 0 -2341 -3 -2365 -8z"/>
</g>
</svg>
