<svg xmlns="http://www.w3.org/2000/svg" viewBox="0 0 60.83 91.61"><path d="M31.18.93A30.38,30.38,0,0,0,.81,31.31c0,16.77,30.37,61,30.37,61s30.38-44.27,30.38-61A30.38,30.38,0,0,0,31.18.93Zm0,43.47A14.28,14.28,0,1,1,45.46,30.12,14.29,14.29,0,0,1,31.18,44.4Z" transform="translate(-0.81 -0.93)" style="fill:#bd242b"/><path d="M6.09,34.17A26.39,26.39,0,0,1,53.4,18.09,26.39,26.39,0,1,0,9.6,47.32,26.26,26.26,0,0,1,6.09,34.17Z" transform="translate(-0.81 -0.93)" style="fill:#cd4a45"/><path d="M24.1,80.93c4.14,6.93,7.16,11.61,7.16,11.61s30.38-44.26,30.38-61c0-.88,0-1.75-.12-2.61a73.86,73.86,0,0,1-5,13.53c-5.75,12-14.26,19.64-23.31,29.35C30.32,74.9,27.28,78,24.1,80.93Z" transform="translate(-0.81 -0.93)" style="fill:#ac262b"/></svg>