<?xml version="1.0" standalone="no"?>
<!DOCTYPE svg PUBLIC "-//W3C//DTD SVG 20010904//EN"
 "http://www.w3.org/TR/2001/REC-SVG-20010904/DTD/svg10.dtd">
<svg version="1.0" xmlns="http://www.w3.org/2000/svg"
 width="512.000000pt" height="512.000000pt" viewBox="0 0 512.000000 512.000000"
 preserveAspectRatio="xMidYMid meet">

<g transform="translate(0.000000,512.000000) scale(0.100000,-0.100000)"
fill="#000000" stroke="none">
<path d="M2678 3308 c-5 -2042 1 -1880 -84 -2053 -75 -153 -188 -266 -339
-341 -127 -62 -196 -78 -340 -78 -140 0 -211 16 -330 74 -151 75 -273 196
-345 345 -58 121 -74 190 -74 330 -1 145 15 212 81 345 39 80 60 109 137 185
99 99 190 154 321 195 96 30 255 37 355 16 41 -9 81 -16 88 -16 9 0 12 91 12
419 l0 420 -47 8 c-27 4 -120 7 -208 7 -257 -1 -460 -47 -682 -154 -878 -422
-1176 -1491 -641 -2298 93 -140 293 -341 428 -431 418 -277 921 -349 1400
-199 429 134 812 485 985 901 44 108 78 227 101 352 16 92 17 178 15 1103 -2
551 0 1002 4 1002 4 0 24 -13 44 -29 112 -89 340 -210 513 -275 195 -72 471
-126 648 -126 l90 0 -2 413 -3 412 -97 6 c-306 20 -585 148 -814 374 -224 220
-355 502 -380 818 l-7 87 -412 0 -413 0 -4 -1812z"/>
</g>
</svg>
